<svg xmlns="http://www.w3.org/2000/svg" version="1.1" xmlns:xlink="http://www.w3.org/1999/xlink" xmlns:svgjs="http://svgjs.com/svgjs" width="1440" height="560" preserveAspectRatio="none" viewBox="0 0 1440 560"><g mask="url(&quot;#SvgjsMask1394&quot;)" fill="none"><rect width="1440" height="560" x="0" y="0" fill="#0e2a47"></rect><path d="M1333.33 77.11a3.06 3.06 0 1 0-5.9 1.63z" stroke="#e73635"></path><path d="M1045.1 154.51L1059.27 154.51L1059.27 190.69L1045.1 190.69z" fill="#037b0b"></path><path d="M275.76 133.71L302.24 133.71L302.24 169.06L275.76 169.06z" fill="#e73635"></path><path d="M874.73 537.5a10.75 10.75 0 1 0-20.08 7.69z" fill="#e73635"></path><path d="M1288.94 274.95L1342.95 274.95L1342.95 286.73L1288.94 286.73z" stroke="#e73635"></path><path d="M1115.55 441.91L1152.62 441.91L1152.62 456.4L1115.55 456.4z" fill="#d3b714"></path><path d="M1352.21 92.71a44.55 44.55 0 1 0-58.39 67.3z" fill="#d3b714"></path><path d="M318.28 74.44 a8.99 8.99 0 1 0 17.98 0 a8.99 8.99 0 1 0 -17.98 0z" fill="#d3b714"></path><path d="M74.82 399a25.22 25.22 0 1 0 19.04 46.71z" fill="#e73635"></path><path d="M1098.06 370.51L1134.81 370.51L1134.81 407.26L1098.06 407.26z" fill="#037b0b"></path><path d="M814.3 197.01L820.94 197.01L820.94 209.31L814.3 209.31z" fill="#037b0b"></path><path d="M1085.82 167.57 a54.36 54.36 0 1 0 108.72 0 a54.36 54.36 0 1 0 -108.72 0z" fill="#e73635"></path><path d="M1302.92 397.31 a54.66 54.66 0 1 0 109.32 0 a54.66 54.66 0 1 0 -109.32 0z" fill="#e73635"></path><path d="M1053.57 283.39a6.34 6.34 0 1 0 4.1-12z" fill="#e73635"></path><path d="M1285.3 74.85L1332.54 74.85L1332.54 122.09L1285.3 122.09z" stroke="#d3b714"></path><path d="M833.06 399.24 a47.65 47.65 0 1 0 95.3 0 a47.65 47.65 0 1 0 -95.3 0z" fill="#037b0b"></path><path d="M1361.39 20.58 a31.04 31.04 0 1 0 62.08 0 a31.04 31.04 0 1 0 -62.08 0z" stroke="#037b0b"></path><path d="M772.06 449.63L825.25 449.63L825.25 502.82L772.06 502.82z" fill="#037b0b"></path><path d="M520.27 394.02a6.97 6.97 0 1 0-2.72-13.67z" stroke="#d3b714"></path><path d="M1414.16 164.96L1464.43 164.96L1464.43 215.23L1414.16 215.23z" fill="#037b0b"></path><path d="M449.09 458.07L457.59 458.07L457.59 485.02L449.09 485.02z" fill="#037b0b"></path><path d="M438.62 539.89L464.28 539.89L464.28 569.13L438.62 569.13z" fill="#e73635"></path><path d="M155.71 180.5L202.86 180.5L202.86 209.89L155.71 209.89z" stroke="#e73635"></path><path d="M283.17 481.01 a4.18 4.18 0 1 0 8.36 0 a4.18 4.18 0 1 0 -8.36 0z" stroke="#e73635"></path><path d="M95.05 22.76L149.13 22.76L149.13 76.84L95.05 76.84z" stroke="#d3b714"></path><path d="M272.32 230.5a22.01 22.01 0 1 0 17.16-40.54z" stroke="#e73635"></path><path d="M131.35 376.62a42.41 42.41 0 1 0-15.95 83.3z" stroke="#037b0b"></path><path d="M434.48 517.25a23.1 23.1 0 1 0 18.9-42.16z" stroke="#e73635"></path><path d="M986.55 481.81a37.27 37.27 0 1 0 65.76-35.08z" fill="#e73635"></path><path d="M567.82 441.29a55.45 55.45 0 1 0-2.4 110.87z" fill="#d3b714"></path><path d="M394.75 173.77L399.4 173.77L399.4 199.59L394.75 199.59z" stroke="#037b0b"></path><path d="M1422.1 448.08L1454.75 448.08L1454.75 494.99L1422.1 494.99z" stroke="#e73635"></path><path d="M834.26 123.29 a28.79 28.79 0 1 0 57.58 0 a28.79 28.79 0 1 0 -57.58 0z" fill="#e73635"></path></g><defs><mask id="SvgjsMask1394"><rect width="1440" height="560" fill="#ffffff"></rect></mask></defs></svg>